<?xml version="1.0" encoding="UTF-8"?>
<svg version="1.1" xmlns="http://www.w3.org/2000/svg" width="318" height="159">
<path d="M0 0 C104.94 0 209.88 0 318 0 C318 52.47 318 104.94 318 159 C213.06 159 108.12 159 0 159 C0 106.53 0 54.06 0 0 Z " fill="#FEFEFF" transform="translate(0,0)"/>
<path d="M0 0 C5.83290126 2.41334324 10.68556359 5.37379779 15 10 C19.26020411 8.0329916 22.87117944 5.29919201 26.66015625 2.55859375 C31.11251165 -0.40716552 35.79193113 -0.84060059 41 0 C43.75569447 2.18159145 45.43588747 3.87177494 47 7 C47.09880893 9.78118083 47.13893835 12.5317989 47.125 15.3125 C47.12886719 16.07240234 47.13273437 16.83230469 47.13671875 17.61523438 C47.12989371 21.54304438 46.96449979 25.16496512 46 29 C47.2065625 29.0928125 47.2065625 29.0928125 48.4375 29.1875 C55.56546861 30.81317705 61.18557294 34.58376956 66 40 C66.33 40.33 66.66 40.66 67 41 C67.55377507 44.9456474 67.77017451 47.53857346 65.89453125 51.09765625 C60.96309481 57.41720073 54.29923139 60.10226002 47 63 C47.0314209 63.85380249 47.0314209 63.85380249 47.06347656 64.72485352 C47.14730994 67.33721816 47.19886818 69.94929884 47.25 72.5625 C47.28351563 73.45775391 47.31703125 74.35300781 47.3515625 75.27539062 C47.44153928 81.41630616 46.6277819 84.9950046 43 90 C39.01263274 91.99368363 34.08860394 91.6831882 29.91015625 90.31640625 C24.81757113 87.88608345 20.39565607 84.5071724 16 81 C15.52691406 81.38671875 15.05382812 81.7734375 14.56640625 82.171875 C8.63675168 86.84162246 2.48230782 91.02472671 -5.25 91.5625 C-9.82129683 90.87680548 -11.2214877 89.62048572 -14 86 C-14.96088383 83.11734851 -15.11670941 81.32337729 -15.09765625 78.33203125 C-15.09443359 77.43935547 -15.09121094 76.54667969 -15.08789062 75.62695312 C-15.07951172 74.69818359 -15.07113281 73.76941406 -15.0625 72.8125 C-15.05798828 71.87212891 -15.05347656 70.93175781 -15.04882812 69.96289062 C-15.03704626 67.64186288 -15.02059558 65.32096356 -15 63 C-15.69593262 62.74444336 -16.39186523 62.48888672 -17.10888672 62.22558594 C-23.71909984 59.76566583 -29.31409567 57.20575678 -33.9375 51.6875 C-35.38932902 48.0152266 -35.82356931 44.8881974 -35 41 C-31.64253891 36.48841165 -26.84046704 33.74261055 -22 31 C-21.34128906 30.62230469 -20.68257812 30.24460937 -20.00390625 29.85546875 C-18 29 -18 29 -14 29 C-14.16008545 28.42491699 -14.3201709 27.84983398 -14.48510742 27.25732422 C-15.32684318 23.56709719 -15.26680159 19.89664197 -15.3125 16.125 C-15.34150391 15.33480469 -15.37050781 14.54460938 -15.40039062 13.73046875 C-15.45877419 8.33223438 -14.60890258 5.27176224 -11 1 C-7.4391467 -0.78042665 -3.83294112 -0.60490369 0 0 Z " fill="#0AD9FF" transform="translate(53,34)"/>
<path d="M0 0 C15.28395597 -1.58291834 15.28395597 -1.58291834 19.91772461 1.99951172 C23.34818094 6.03547222 25.48312929 10.55887278 27.07983398 15.57861328 C26.42755366 19.79492055 24.1488962 23.20525176 22.01733398 26.82861328 C20.71795898 29.05611328 19.41858398 31.28361328 18.07983398 33.57861328 C11.47983398 33.57861328 4.87983398 33.57861328 -1.92016602 33.57861328 C-11.20544051 20.17960958 -11.20544051 20.17960958 -10.69165039 15.49511719 C-9.21193329 11.04614476 -6.67026952 7.33831502 -3.92016602 3.57861328 C-1.92016602 0.57861328 -1.92016602 0.57861328 0 0 Z " fill="#F6FDFF" transform="translate(60.920166015625,62.42138671875)"/>
<path d="M0 0 C21 0 21 0 27 4 C29.37302167 6.92672672 29.95966626 8.68309204 30.4375 12.4375 C29.91233829 16.71381679 28.76012209 18.71769265 26 22 C23.25 23.875 23.25 23.875 21 25 C22.42715024 28.94989057 24.32236284 32.24392696 26.625 35.75 C30 40.90204082 30 40.90204082 30 42 C27.3359375 42.4609375 27.3359375 42.4609375 24 42 C21.74642832 39.83859894 20.23242294 37.28623194 18.625 34.625 C18.17511719 33.92632812 17.72523438 33.22765625 17.26171875 32.5078125 C14 27.35251235 14 27.35251235 14 25 C11.03 25 8.06 25 5 25 C5 30.61 5 36.22 5 42 C3.35 42 1.7 42 0 42 C0 28.14 0 14.28 0 0 Z " fill="#09D8FF" transform="translate(141,61)"/>
<path d="M0 0 C5.29876715 1.92682442 5.29876715 1.92682442 7.14794922 4.75683594 C8.1952185 7.51394488 8.22666561 9.69343306 8.1953125 12.640625 C8.18886719 13.71054688 8.18242187 14.78046875 8.17578125 15.8828125 C8.15902344 16.99398437 8.14226562 18.10515625 8.125 19.25 C8.11597656 20.37664062 8.10695312 21.50328125 8.09765625 22.6640625 C8.07410658 25.44292365 8.0412168 28.2213539 8 31 C6.35 31 4.7 31 3 31 C2.67 30.34 2.34 29.68 2 29 C1.13375 29.495 0.2675 29.99 -0.625 30.5 C-4.24472537 32.10876683 -6.10348102 32.56824235 -10 32 C-15.57894737 28.84210526 -15.57894737 28.84210526 -17 26 C-17.47847852 22.9171447 -17.5463489 20.07652779 -17 17 C-14.43564662 13.85866711 -12.96423956 12.40142197 -9.03125 11.59765625 C-4.34510844 11.37236098 -1.05543073 12.56674156 3 15 C2.896875 13.72125 2.79375 12.4425 2.6875 11.125 C2.62949219 10.40570313 2.57148438 9.68640625 2.51171875 8.9453125 C2.12606964 6.60480784 2.12606964 6.60480784 -1 5 C-6.4266032 4.56237071 -9.50814656 4.63110992 -14 8 C-14.33 6.68 -14.66 5.36 -15 4 C-10.09000189 -0.02871639 -6.30956605 -0.93684075 0 0 Z " fill="#0BD9FF" transform="translate(228,72)"/>
<path d="M0 0 C3.94557465 2.07750003 6.42003046 4.12114503 8.02734375 8.28125 C8.02734375 10.92125 8.02734375 13.56125 8.02734375 16.28125 C0.10734375 16.28125 -7.81265625 16.28125 -15.97265625 16.28125 C-12.94426167 23.99183562 -12.94426167 23.99183562 -8.97265625 26.28125 C-3.37124813 26.81984693 0.10908265 25.69019421 5.02734375 23.28125 C5.35734375 24.60125 5.68734375 25.92125 6.02734375 27.28125 C0.940707 30.24074775 -2.92825399 32.06478363 -8.97265625 31.28125 C-14.5957926 29.18635607 -17.4580271 26.15904538 -20.22265625 20.90625 C-21.53863779 16.30031462 -21.48939195 12.64108079 -19.78515625 8.15625 C-15.11915648 0.75500898 -8.72822262 -3.18018408 0 0 Z " fill="#0BD9FF" transform="translate(195.97265625,72.71875)"/>
<path d="M0 0 C3.29568257 7.02984651 4.83698778 11.59428074 2.25 19.20703125 C1.54097562 21.15343953 0.77515274 23.07896929 0 25 C-7.10164957 24.4202735 -11.40792627 21.99805683 -17 17.6875 C-19 15 -19 15 -19.375 11.5625 C-17.37017157 6.3681718 -13.76118171 4.5846415 -9 2 C-8.34644531 1.61457031 -7.69289063 1.22914062 -7.01953125 0.83203125 C-4.57229603 -0.17621072 -2.62164877 -0.14564715 0 0 Z " fill="#F7FDFF" transform="translate(41,67)"/>
<path d="M0 0 C3.18781964 3.91332343 3.35565781 7.12299754 3.25 12.0625 C3.23453125 13.27035156 3.2190625 14.47820313 3.203125 15.72265625 C3.04126956 18.33413158 2.76777456 20.51711614 2 23 C0.24967156 22.85816304 -1.50025534 22.71136571 -3.25 22.5625 C-4.22453125 22.48128906 -5.1990625 22.40007813 -6.203125 22.31640625 C-12.40889579 21.61435676 -12.40889579 21.61435676 -14.88671875 19.0390625 C-15.48097656 18.24242188 -16.07523437 17.44578125 -16.6875 16.625 C-17.28949219 15.83351563 -17.89148438 15.04203125 -18.51171875 14.2265625 C-20 12 -20 12 -21 9 C-19.41906946 7.87162591 -17.83515284 6.74743482 -16.25 5.625 C-15.36828125 4.99851562 -14.4865625 4.37203125 -13.578125 3.7265625 C-8.87873688 0.57939652 -5.80125161 -0.73834111 0 0 Z " fill="#F6FDFF" transform="translate(93,38)"/>
<path d="M0 0 C13.10972124 0.52303907 13.10972124 0.52303907 17.5546875 3.99609375 C20.64256373 7.89758052 22 9.92549307 22 15 C19.6640625 16.88671875 19.6640625 16.88671875 16.625 18.6875 C15.62726562 19.28949219 14.62953125 19.89148438 13.6015625 20.51171875 C9.40959883 22.90982409 6.92278625 23.51818803 2 23 C-1.19874826 19.09855189 -1.35553403 15.87121574 -1.25 10.9375 C-1.23453125 9.72964844 -1.2190625 8.52179688 -1.203125 7.27734375 C-1.04126956 4.66586842 -0.76777456 2.48288386 0 0 Z " fill="#F8FDFF" transform="translate(43,98)"/>
<path d="M0 0 C6.96275376 1.21571891 12.40593752 5.45299355 17.9375 9.6875 C13.6348472 18.49017499 13.6348472 18.49017499 9.9375 21.6875 C5.00918863 23.28903844 0.09724768 23.6875 -5.0625 23.6875 C-5.95768105 19.81800773 -6.25685332 16.15696297 -6.3125 12.1875 C-6.33828125 11.0840625 -6.3640625 9.980625 -6.390625 8.84375 C-5.89594142 4.0853651 -4.85150665 1.08911374 0 0 Z " fill="#F7FDFF" transform="translate(48.0625,37.3125)"/>
<path d="M0 0 C1.55693041 3.11386082 1.22567195 6.39744932 1.25 9.8125 C1.270625 10.52470703 1.29125 11.23691406 1.3125 11.97070312 C1.34592453 16.48719209 0.90707437 19.47627349 -2 23 C-7.99325359 24.34542428 -11.85610271 21.69297889 -16.765625 18.60546875 C-18.7310558 17.19324487 -20.36116785 15.77185424 -22 14 C-21.3125 11.9375 -21.3125 11.9375 -20 9 C-19.73960938 8.39929688 -19.47921875 7.79859375 -19.2109375 7.1796875 C-17.98883999 4.95005922 -16.99983387 3.59657519 -15 2 C-10.09686501 0.61300896 -5.09680174 0 0 0 Z " fill="#F8FDFF" transform="translate(95,98)"/>
<path d="M0 0 C7.68534282 1.29796901 13.99807447 3.65140221 19 10 C19.32421875 12.40234375 19.32421875 12.40234375 19 15 C15.14201324 19.91016497 9.86184295 23.08362827 4 25 C2.68 25 1.36 25 0 25 C-4.1610637 14.96344292 -3.94717935 9.95375662 0 0 Z " fill="#F7FDFF" transform="translate(97,67)"/>
<path d="M0 0 C2.3925 -0.0825 4.785 -0.165 7.25 -0.25 C7.99668945 -0.28641602 8.74337891 -0.32283203 9.51269531 -0.36035156 C12.87419799 -0.41640674 14.70251494 -0.21411345 17.453125 1.765625 C19.07896746 4.11406411 19.54399761 5.1841531 19.5 8 C19.5103125 8.66 19.520625 9.32 19.53125 10 C18.72335473 13.04148806 17.54915443 14.16525828 15 16 C12.2317375 16.29449601 9.98597978 16.38343363 7.25 16.25 C4.8575 16.1675 2.465 16.085 0 16 C0 10.72 0 5.44 0 0 Z " fill="#F7FDFF" transform="translate(146,66)"/>
<path d="M0 0 C3.5 1.5 3.5 1.5 6 3 C6 4.32 6 5.64 6 7 C3 7 3 7 0 5 C-4.26298919 4.44739029 -6.27486823 4.51132424 -9.875 6.9375 C-12.65844147 10.94893035 -13.16122609 14.17170283 -13 19 C-12.41918824 22.42191312 -12.41918824 22.42191312 -11 25 C-8.22947819 25.92350727 -6.43311242 26.16329585 -3.5625 26.1875 C-2.41974609 26.20876953 -2.41974609 26.20876953 -1.25390625 26.23046875 C1.23293613 25.97618157 2.79029709 25.11188873 5 24 C5.66 24.33 6.32 24.66 7 25 C6.875 26.8125 6.875 26.8125 6 29 C1.64277145 31.90481903 -1.82364867 32.71397949 -7 32 C-11.19802352 30.18756918 -14.22539684 28.01666665 -17 24.375 C-18.82240736 18.22437516 -19.14668764 12.42568538 -16.375 6.5625 C-11.43531263 1.23283732 -7.22996638 -1.24802991 0 0 Z " fill="#0DD9FF" transform="translate(262,72)"/>
<path d="M0 0 C3.96287721 0.38104589 5.4323945 1.57539752 8.25 4.3125 C10.01309001 7.83868003 9.31454696 11.60629948 8.25 15.3125 C5.5625 17.9375 5.5625 17.9375 2.25 19.3125 C-0.98868485 19.2477263 -3.11318175 18.58788087 -6.0625 17.3125 C-8.40282406 14.53878259 -8.72272215 12.1103426 -8.99609375 8.5390625 C-8.75 6.3125 -8.75 6.3125 -6.375 3.3125 C-5.50875 2.6525 -4.6425 1.9925 -3.75 1.3125 C-2.75 0.3125 -2.75 0.3125 0 0 Z " fill="#09D9FF" transform="translate(68.75,69.6875)"/>
<path d="M0 0 C1.65 0 3.3 0 5 0 C5 2.97 5 5.94 5 9 C6.98 9 8.96 9 11 9 C11 10.32 11 11.64 11 13 C9.02 13 7.04 13 5 13 C5.33 19.93 5.66 26.86 6 34 C7.98 34.33 9.96 34.66 12 35 C11.125 38.875 11.125 38.875 10 40 C3.75626263 39.53750094 3.75626263 39.53750094 1.29174805 37.78588867 C-0.48278973 35.33252563 -0.34281851 33.68338362 -0.29296875 30.67578125 C-0.28330078 29.64775391 -0.27363281 28.61972656 -0.26367188 27.56054688 C-0.23853516 26.48869141 -0.21339844 25.41683594 -0.1875 24.3125 C-0.17396484 23.22904297 -0.16042969 22.14558594 -0.14648438 21.02929688 C-0.11110643 18.35236595 -0.06174189 15.67643162 0 13 C-1.65 13 -3.3 13 -5 13 C-5 11.68 -5 10.36 -5 9 C-3.35 9 -1.7 9 0 9 C0 6.03 0 3.06 0 0 Z " fill="#11D9FF" transform="translate(277,64)"/>
<path d="M0 0 C2.5 1.0625 2.5 1.0625 4 3 C4.74841296 8.98730371 4.74841296 8.98730371 2.75 11.69140625 C-0.02917035 13.76958051 -2.46843064 13.47385986 -5.83203125 13.34765625 C-8 13 -8 13 -10.625 11.375 C-12 9 -12 9 -11.9375 5.9375 C-9.90290123 -0.43757616 -6.38834136 -0.91262019 0 0 Z " fill="#F4FDFF" transform="translate(227,87)"/>
<path d="M0 0 C3.20107207 0.69194891 4.80809257 1.97042194 6.93359375 4.41796875 C7.26359375 6.39796875 7.59359375 8.37796875 7.93359375 10.41796875 C1.33359375 10.41796875 -5.26640625 10.41796875 -12.06640625 10.41796875 C-10.61582003 3.16503765 -7.52416603 -0.52626492 0 0 Z " fill="#F1FCFF" transform="translate(192.06640625,75.58203125)"/>
<path d="M0 0 C2.86697492 1.28519565 4.97607712 2.57129254 7 5 C7 5.66 7 6.32 7 7 C3.04 7 -0.92 7 -5 7 C-3.38262276 3.76524552 -2.52370777 2.29427979 0 0 Z " fill="#D5F7FF" transform="translate(68,52)"/>
<path d="M0 0 C3.96 0 7.92 0 12 0 C10.38262276 3.23475448 9.52370777 4.70572021 7 7 C2.74816494 5.38723498 2.65120081 4.41866801 0 0 Z " fill="#DCF9FF" transform="translate(63,100)"/>
<path d="M0 0 C0.66 0 1.32 0 2 0 C2.67154933 1.28913487 3.33708859 2.58140204 4 3.875 C4.37125 4.59429687 4.7425 5.31359375 5.125 6.0546875 C6 8 6 8 6 10 C3.69 10 1.38 10 -1 10 C-2.46726798 6.18510326 -1.43336419 3.70988378 0 0 Z " fill="#DFF9FF" transform="translate(47,85)"/>
<path d="M0 0 C-1.65 3.3 -3.3 6.6 -5 10 C-5.66 10 -6.32 10 -7 10 C-8.49821059 6.62902617 -9 4.79557881 -9 1 C-6.04335481 -0.4783226 -3.25770263 -0.06032783 0 0 Z " fill="#DEF9FF" transform="translate(54,64)"/>
<path d="M0 0 C0.66 0 1.32 0 2 0 C3.49821059 3.37097383 4 5.20442119 4 9 C1.36 9.33 -1.28 9.66 -4 10 C-2.8905928 6.51329166 -1.73662334 3.22515763 0 0 Z " fill="#E8FBFF" transform="translate(89,85)"/>
<path d="M0 0 C2.97 0.33 5.94 0.66 9 1 C8.51421457 4.12290635 8.0013988 6.99580359 7 10 C6.34 10 5.68 10 5 10 C3.35 6.7 1.7 3.4 0 0 Z " fill="#E4FAFF" transform="translate(84,64)"/>
</svg>
